<svg
  xmlns="http://www.w3.org/2000/svg"
  width="75"
  height="77"
  viewBox="0 0 75 77"
  fill="none"
>
  <path fill-rule="evenodd" clip-rule="evenodd" d="M20.6772 62.3714C15.5209 59.4145 9.90876 57.126 4.45391 54.9466C3.27798 54.4811 1.93786 54.9874 1.55117 56.098C1.07753 57.1865 1.67072 58.4536 2.75993 58.8961C8.04814 61.0039 13.497 63.2039 18.4078 66.0365C19.453 66.6456 20.8369 66.3273 21.4749 65.3187C22.1128 64.3109 21.7221 62.9813 20.6772 62.3714Z" fill="#1C64F2"></path>
<path fill-rule="evenodd" clip-rule="evenodd" d="M43.0838 45.7241C36.4564 34.6508 28.4049 24.4002 22.0128 13.139C21.4533 12.0973 20.0776 11.6853 19.0041 12.2356C17.9303 12.7866 17.4966 14.0763 18.1428 15.1411C24.5281 26.4279 32.573 36.7033 39.1936 47.8024C39.845 48.8472 41.2292 49.2259 42.3086 48.6533C43.3012 48.0585 43.7352 46.769 43.0838 45.7241Z" fill="#1C64F2"></path>
<path fill-rule="evenodd" clip-rule="evenodd" d="M68.6881 16.6535C67.6291 21.7073 66.5695 26.761 65.5103 31.8157C65.2081 32.9575 66.016 34.1147 67.2448 34.3805C68.4738 34.6454 69.5977 33.9028 69.9001 32.7601C70.9613 27.698 72.0228 22.6369 73.0838 17.5756C73.2992 16.4108 72.4902 15.2595 71.2596 15.0004C70.1158 14.7642 68.9033 15.4896 68.6881 16.6535Z" fill="#1C64F2"></path>
</svg>
