<svg xmlns="http://www.w3.org/2000/svg" width="698" height="148" fill="none"><path fill="url(#a)" d="M58.799 146.656a133.765 133.765 0 0 1-28.838-19.862 75.322 75.322 0 0 1-5.692-5.67l-2.343-2.667c-1.205-1.3-2.27-2.659-3.409-4.128-1.145-1.462-2.666-3.327-3.73-5.053a81.774 81.774 0 0 1-6.604-11.349 94.32 94.32 0 0 1-2.872-6.603 76.68 76.68 0 0 1-4.452-18.18 89.12 89.12 0 0 1-.477-5.193 62.12 62.12 0 0 1 .477-13.317 63.642 63.642 0 0 1 5.598-18.488 63.328 63.328 0 0 1 10.885-15.961 63.216 63.216 0 0 1 8.278-7.456 63.24 63.24 0 0 1 9.461-5.898 62.877 62.877 0 0 1 10.335-4.15A63.563 63.563 0 0 1 56.324.397 30.67 30.67 0 0 0 59.894 0h8.41c0 .213.293.132.455.162a64.01 64.01 0 0 1 6.471.852 63.44 63.44 0 0 1 10.122 2.754 63.609 63.609 0 0 1 18.238 10.254 64.287 64.287 0 0 1 7.617 7.22 64.308 64.308 0 0 1 6.325 8.367 63.695 63.695 0 0 1 4.877 9.299 63.344 63.344 0 0 1 3.291 9.968 63.356 63.356 0 0 1 1.608 10.364c.713 9.585-.639 18.87-4.047 27.853a47.296 47.296 0 0 1-1.939 4.37l-.536 1.087a63.665 63.665 0 0 1-13.31 17.871 63.867 63.867 0 0 1-9.27 7.287 63.705 63.705 0 0 1-10.46 5.443 63.17 63.17 0 0 1-11.282 3.401 62.953 62.953 0 0 1-11.723 1.256c-.749 0-.962.183-.933.955v15.021a3.534 3.534 0 0 1-.492 1.63c-.147.243-.33.47-.536.669a3.393 3.393 0 0 1-.683.521c-.25.14-.514.25-.793.331a3.32 3.32 0 0 1-.845.117 3.359 3.359 0 0 1-.86-.088 3.543 3.543 0 0 1-.8-.308Zm-.904-99.984a3.398 3.398 0 0 0-.25-2.05 3.452 3.452 0 0 0-1.373-1.542 3.007 3.007 0 0 0-1.682-.455H30.975c-2.1 0-3.298 1.865-3.298 4.29v27.904c0 1.983.294 3.93.867 5.825a20.274 20.274 0 0 0 2.505 5.34 20.296 20.296 0 0 0 8.954 7.47l.528.272h.456c1.527.448 3.085.793 4.657 1.035a1.717 1.717 0 0 0 1.476-.25 1.725 1.725 0 0 0 .713-1.322v-8.256c0-1.168-.456-1.674-1.918-1.99a10.277 10.277 0 0 1-5.01-2.373c-1.703-1.652-2.695-3.658-2.981-6.015h16.563c.463.014.911-.067 1.344-.236a3.395 3.395 0 0 0 1.139-.756c.323-.33.573-.713.735-1.153.168-.434.242-.882.22-1.344V46.832s-.03-.102-.03-.161Zm11.797 28.096a19.768 19.768 0 0 0 1.726 8.182 19.744 19.744 0 0 0 4.929 6.75l.668.64a21.11 21.11 0 0 0 7.397 3.834 30.68 30.68 0 0 0 3.54.668c.419.059.808-.022 1.16-.25.354-.227.589-.543.706-.947v-7.698c0-.742.264-1.572-.345-2.233a2.03 2.03 0 0 0-1.095-.668 13.893 13.893 0 0 1-3.907-1.33 8.818 8.818 0 0 1-2.74-2.468 8.95 8.95 0 0 1-1.52-3.364l-.427-1.33h16.292a5.5 5.5 0 0 0 1.389-.132 3.2 3.2 0 0 0 1.71-1.13 3.196 3.196 0 0 0 .706-1.933V46.804a3.578 3.578 0 0 0-.095-1.866 3.661 3.661 0 0 0-.992-1.594 2.998 2.998 0 0 0-2.027-.8H72.99c-2.1 0-3.276.668-3.276 4.29-.022.668-.073 19.009-.022 27.933Z"/><path fill="#333" d="M697.837 109.028h-22.894l-22.382-33.339v33.339h-18.884V14h18.884v56.234l20.936-31.008h21.729l-23.547 33.2 26.158 36.602ZM620.235 73.87c0 1.807-.129 3.66-.373 5.55h-52.783c.769 4.732 2.669 8.369 5.688 10.91 3.043 2.553 6.831 3.824 11.377 3.824 3.288 0 6.225-.7 8.813-2.099 2.576-1.422 4.57-3.403 5.969-5.921h19.91c-2.611 7.588-7.029 13.638-13.243 18.138-6.189 4.476-13.335 6.715-21.449 6.715-6.877 0-13.055-1.621-18.558-4.85-5.478-3.229-9.78-7.624-12.916-13.195-3.147-5.561-4.709-11.844-4.709-18.838 0-6.96 1.562-13.22 4.709-18.791 3.136-5.56 7.438-9.956 12.916-13.196 5.503-3.23 11.681-4.85 18.558-4.85 7.181 0 13.476 1.667 18.885 4.99 5.432 3.334 9.664 7.74 12.683 13.242 3.007 5.502 4.523 11.634 4.523 18.372Zm-36.091-20.563c-4.196 0-7.74 1.166-10.631 3.498-2.891 2.331-4.849 5.572-5.875 9.698h33.712c-2.739-8.79-8.474-13.196-17.206-13.196Zm-81.693-16.04c6.994 0 13.242 1.61 18.744 4.803 5.526 3.17 9.885 7.542 13.056 13.103 3.194 5.572 4.803 11.878 4.803 18.93 0 7.088-1.609 13.418-4.803 18.978-3.171 5.537-7.53 9.921-13.056 13.15-5.502 3.229-11.75 4.849-18.744 4.849-3.614 0-7.064-.513-10.352-1.539-3.264-1.026-6.236-2.436-8.906-4.243v28.956h-18.884V39.226h12.543l3.217 6.295c2.949-2.577 6.318-4.593 10.118-6.062 3.789-1.457 7.881-2.192 12.264-2.192Zm-1.539 56c3.602 0 6.854-.838 9.745-2.517 2.891-1.679 5.141-3.963 6.761-6.854 1.644-2.891 2.472-6.155 2.472-9.792 0-3.602-.828-6.855-2.472-9.746-1.62-2.89-3.87-5.175-6.761-6.854-2.891-1.679-6.143-2.518-9.745-2.518-3.707 0-6.983.84-9.839 2.518-2.832 1.679-5.07 3.963-6.714 6.854-1.655 2.891-2.471 6.144-2.471 9.746 0 3.637.816 6.9 2.471 9.792 1.644 2.89 3.882 5.175 6.714 6.854 2.856 1.679 6.132 2.518 9.839 2.518Zm-79.627 17.72c-5.875 0-11.027-1.05-15.434-3.125-4.383-2.074-7.81-4.989-10.258-8.719-2.46-3.754-3.684-8.137-3.684-13.15h18.372c.093 3.113 1.212 5.445 3.357 6.995 2.145 1.562 4.896 2.332 8.253 2.332 2.67 0 5.001-.572 6.995-1.726 1.981-1.177 2.984-2.937 2.984-5.269 0-2.39-1.329-4.08-3.964-5.082-2.611-.991-5.77-1.795-9.465-2.425-2.775-.396-5.642-.99-8.626-1.772-2.985-.77-5.724-1.888-8.207-3.357-2.495-1.492-4.546-3.52-6.155-6.108-1.585-2.577-2.378-5.934-2.378-10.072 0-4.383 1.177-8.253 3.544-11.61 2.39-3.38 5.665-5.992 9.838-7.834 4.197-1.865 9.14-2.798 14.828-2.798 5.596 0 10.468.98 14.641 2.938 4.197 1.935 7.438 4.64 9.746 8.113 2.331 3.486 3.497 7.554 3.497 12.217h-17.952c0-2.763-.933-4.826-2.798-6.202-1.842-1.364-4.406-2.051-7.693-2.051-2.926 0-5.211.63-6.855 1.865-1.62 1.247-2.424 2.867-2.424 4.85 0 2.33 1.282 3.94 3.87 4.802 2.576.84 5.688 1.574 9.325 2.191 2.821.502 5.747 1.12 8.767 1.866 3.007.722 5.805 1.818 8.393 3.31a17.146 17.146 0 0 1 6.294 6.062c1.586 2.588 2.378 5.992 2.378 10.211 0 4.733-1.212 8.86-3.637 12.403-2.401 3.544-5.805 6.295-10.211 8.254-4.383 1.923-9.501 2.891-15.341 2.891Zm-76.032 0c-7.251 0-13.709-1.621-19.397-4.85-5.689-3.229-10.189-7.624-13.476-13.195-3.264-5.561-4.896-11.844-4.896-18.838 0-7.053 1.632-13.36 4.896-18.931 3.287-5.56 7.787-9.932 13.476-13.103 5.688-3.194 12.146-4.803 19.397-4.803 7.146 0 13.569 1.61 19.257 4.803 5.689 3.17 10.165 7.542 13.429 13.103 3.287 5.572 4.943 11.878 4.943 18.93 0 6.995-1.656 13.278-4.943 18.839-3.264 5.572-7.74 9.966-13.429 13.195-5.688 3.229-12.111 4.85-19.257 4.85Zm0-17.72c5.409 0 9.838-1.771 13.289-5.315 3.45-3.543 5.176-8.16 5.176-13.848 0-5.689-1.726-10.282-5.176-13.802-3.451-3.544-7.88-5.316-13.289-5.316-5.537 0-10.025 1.772-13.476 5.316-3.45 3.52-5.175 8.113-5.175 13.802 0 5.688 1.725 10.305 5.175 13.848 3.451 3.544 7.939 5.316 13.476 5.316Zm-50.196-54.461h6.248v17.859h-8.16c-5.35 0-9.174 1.259-11.47 3.777-2.273 2.494-3.404 6.574-3.404 12.263v36.323h-18.885V39.226h12.17l3.358 8.533c4.721-5.969 11.435-8.953 20.143-8.953Zm-85.703-1.539c6.994 0 13.242 1.61 18.744 4.803 5.526 3.17 9.885 7.542 13.056 13.103 3.194 5.572 4.803 11.878 4.803 18.93 0 7.088-1.609 13.418-4.803 18.978-3.171 5.537-7.53 9.921-13.056 13.15-5.502 3.229-11.75 4.849-18.744 4.849-3.614 0-7.065-.513-10.352-1.539-3.264-1.026-6.236-2.436-8.906-4.243v28.956h-18.884V39.226h12.543l3.217 6.295c2.949-2.577 6.318-4.593 10.118-6.062 3.789-1.457 7.88-2.192 12.264-2.192Zm-1.539 56c3.602 0 6.854-.838 9.745-2.517 2.891-1.679 5.141-3.963 6.761-6.854 1.644-2.891 2.471-6.155 2.471-9.792 0-3.602-.827-6.855-2.471-9.746-1.62-2.89-3.87-5.175-6.761-6.854-2.891-1.679-6.143-2.518-9.745-2.518-3.707 0-6.983.84-9.839 2.518-2.832 1.679-5.071 3.963-6.714 6.854-1.656 2.891-2.471 6.144-2.471 9.746 0 3.637.815 6.9 2.471 9.792 1.643 2.89 3.882 5.175 6.714 6.854 2.856 1.679 6.132 2.518 9.839 2.518Z"/><defs><linearGradient id="a" x1=".223" x2="127.493" y1="9.456" y2="137.597" gradientUnits="userSpaceOnUse"><stop offset=".3" stop-color="#5865F2"/><stop offset="1" stop-color="#5CE1E6"/></linearGradient></defs></svg>